<?xml version="1.0" encoding="UTF-8"?>
<!-- Generated by Pixelmator Pro 3.7 -->
<svg width="1300" height="400" viewBox="0 0 1300 400" xmlns="http://www.w3.org/2000/svg">
    <g id="remix-dark">
        <g id="Group">
            <path id="Path" fill="#121212" fill-rule="evenodd" stroke="none" d="M 678.691406 53.414886 C 679.186157 59.769531 679.186157 62.748383 679.186157 66 L 664.483276 66 C 664.483276 65.291748 664.495911 64.643829 664.508728 63.986847 C 664.548462 61.944519 664.590027 59.814758 664.259094 55.513824 C 663.821716 49.217102 661.110229 47.817902 656.124512 47.817902 L 633 47.817902 L 633 36.361511 L 656.82428 36.361511 C 663.121948 36.361511 666.270935 34.445709 666.270935 29.373383 C 666.270935 24.913269 663.121948 22.21048 656.82428 22.21048 L 633 22.21048 L 633 11 L 659.448364 11 C 673.705688 11 680.79071 17.733948 680.79071 28.490692 C 680.79071 36.536407 675.804993 41.7836 669.069885 42.658142 C 674.755371 43.795013 678.079163 47.030823 678.691406 53.414886"/>
            <path id="path1" fill="#121212" stroke="none" d="M 633 66 L 633 57.459656 L 648.546143 57.459656 C 651.142883 57.459656 651.706726 59.38559 651.706726 60.53418 L 651.706726 66 Z"/>
        </g>
        <text id="Remix" xml:space="preserve" x="698" y="54" font-family="SF Pro" font-size="36" fill="#000000">Remix</text>
    </g>
    <g id="nextjs">
        <g id="g1">
            <path id="path2" fill="#000000" stroke="none" d="M 657.5 221 C 672.687683 221 685 208.687698 685 193.5 C 685 178.312302 672.687683 166 657.5 166 C 642.312317 166 630 178.311752 630 193.5 C 630 208.688248 642.312317 221 657.5 221"/>
            <linearGradient id="linearGradient1" x1="663.3058" y1="201.5971" x2="674.1529" y2="215.0413" gradientUnits="userSpaceOnUse">
                <stop offset="1e-05" stop-color="#ffffff" stop-opacity="1"/>
                <stop offset="1" stop-color="#ffffff" stop-opacity="0"/>
            </linearGradient>
            <path id="path3" fill="url(#linearGradient1)" stroke="none" d="M 675.682983 214.131058 L 651.126587 182.5 L 646.5 182.5 L 646.5 204.490646 L 650.201477 204.490646 L 650.201477 187.200302 L 672.777344 216.369003 C 673.794617 215.688507 674.76532 214.940857 675.682983 214.131058"/>
            <linearGradient id="linearGradient2" x1="666.9721" y1="182.5" x2="666.91105" y2="198.65625" gradientUnits="userSpaceOnUse">
                <stop offset="1e-05" stop-color="#ffffff" stop-opacity="1"/>
                <stop offset="1" stop-color="#ffffff" stop-opacity="0"/>
            </linearGradient>
            <path id="path4" fill="url(#linearGradient2)" stroke="none" d="M 668.805786 182.5 L 665.138977 182.5 L 665.138977 204.5 L 668.805786 204.5 Z"/>
        </g>
        <text id="Nextjs" xml:space="preserve" x="698" y="202" font-family="SF Pro" font-size="36" fill="#000000">Next.js</text>
    </g>
    <g id="vercel">
        <path id="vercel-dark" fill="#000000" stroke="none" d="M 657.018799 88 L 689.037659 143 L 625 143 Z M 657.018799 88"/>
        <text id="Vercel" xml:space="preserve" x="698" y="133" font-family="SF Pro" font-size="36" fill="#000000">Vercel</text>
    </g>
    <g id="github">
        <path id="GitHubInvertocatDark" fill="#000000" stroke="none" d="M 422.017426 324 C 406.490387 324 394 336.60498 394 352.189301 C 394 364.679688 402.021362 375.222046 413.136658 378.946259 C 414.511749 379.232727 415.027405 378.31601 415.027405 377.571167 C 415.027405 376.940918 414.970093 374.649109 414.970093 372.357269 C 407.177917 374.01886 405.573669 368.976868 405.573669 368.976868 C 404.313171 365.711029 402.479706 364.851593 402.479706 364.851593 C 399.95871 363.132721 402.651611 363.132721 402.651611 363.132721 C 405.459076 363.304626 406.948761 366.054779 406.948761 366.054779 C 409.469757 370.351929 413.480408 369.148743 415.084686 368.4039 C 415.313873 366.570435 416.058716 365.309937 416.86084 364.622406 C 410.672943 363.992157 404.141266 361.528442 404.141266 350.699646 C 404.141266 347.605682 405.229889 345.084686 407.006042 343.136658 C 406.719574 342.449097 405.745544 339.527039 407.292511 335.688263 C 407.292511 335.688263 409.641632 334.94342 414.970093 338.610321 C 417.20462 337.980072 419.611023 337.693604 421.960144 337.693604 C 424.309235 337.693604 426.715637 338.037354 428.950165 338.610321 C 434.278625 334.94342 436.627747 335.688263 436.627747 335.688263 C 438.174713 339.58432 437.200684 342.449097 436.914215 343.136658 C 438.747681 345.084686 439.778992 347.605682 439.778992 350.699646 C 439.778992 361.528442 433.247314 363.934875 427.002136 364.622406 C 428.033447 365.481842 428.892883 367.200684 428.892883 369.836273 C 428.892883 373.617767 428.835571 376.654419 428.835571 377.571167 C 428.835571 378.31601 429.351227 379.232727 430.726318 378.946259 C 441.898926 375.222046 449.920258 364.679688 449.920258 352.189301 C 449.97757 336.60498 437.429871 324 422.017426 324 Z"/>
        <text id="Github" xml:space="preserve" x="463" y="366" font-family="SF Pro" font-size="36" fill="#000000">Github</text>
    </g>
    <g id="sqlite">
        <g id="sqlite-dark">
            <path id="path21" fill="#000000" stroke="none" d="M 898.208923 17.661346 C 895.784485 15.552063 892.984253 16.400635 890.159729 18.90387 L 888.90509 20.128204 C 884.074402 25.261963 879.589172 34.753662 878.195129 42.002777 C 878.801208 43.105896 879.164917 44.506012 879.443726 45.639435 L 879.625549 46.391022 L 879.807373 47.239563 C 879.807373 47.239563 879.764954 47.075928 879.589172 46.56073 L 879.467957 46.227356 C 879.445251 46.166138 879.421021 46.10553 879.395203 46.045532 C 879.080017 45.318207 878.207214 43.766541 877.819336 43.093781 C 877.515259 43.985229 877.228333 44.882446 876.958679 45.784912 C 878.06781 47.809326 878.740601 51.282349 878.740601 51.282349 C 878.740601 51.282349 878.679993 51.058075 878.401184 50.270142 C 878.158752 49.57312 876.922302 47.421417 876.631348 46.912262 C 876.134338 48.754852 875.934326 50.003448 876.11615 50.306488 C 876.461609 50.89444 876.794983 51.906647 877.085938 53.021881 C 877.539612 54.867004 877.909729 56.731689 878.195129 58.610229 L 878.237549 59.125427 C 878.15686 61.20932 878.20343 63.296204 878.376953 65.37442 C 878.595154 67.998901 879.001221 70.253632 879.528564 71.465851 L 879.880127 71.271912 C 879.116394 68.895935 878.801208 65.774475 878.940613 62.180237 C 879.146729 56.6828 880.413513 50.057983 882.747009 43.148315 C 886.686707 32.723206 892.172058 24.358856 897.18457 20.358521 C 892.614502 24.480072 886.43219 37.838776 884.577454 42.784668 C 882.504578 48.324524 881.037781 53.512817 880.152832 58.501129 C 881.680237 53.834076 886.620056 51.833893 886.620056 51.833893 C 886.620056 51.833893 889.044495 48.845764 891.868958 44.578735 L 886.456421 46.021301 L 884.710815 46.797119 C 884.710815 46.797119 889.16571 44.081726 892.990295 42.857391 C 898.2453 34.577911 903.973022 22.813293 898.202881 17.673462"/>
        </g>
        <text id="Sqlite" xml:space="preserve" x="949" y="49" font-family="SF Pro" font-size="36" fill="#000000">Sqlite</text>
    </g>
    <g id="Shadcn">
        <clipPath id="clipPath1">
            <path d="M 378.529762 225.529762 L 462.339286 225.529762 L 462.339286 309.339286 L 378.529762 309.339286 Z"/>
        </clipPath>
        <g id="shadcnui" clip-path="url(#clipPath1)">
            <path id="path5" fill="none" stroke="#000000" stroke-width="5.238095" stroke-linecap="round" stroke-linejoin="round" d="M 446.625 267.434509 L 420.434509 293.625 M 441.386902 238.625 L 391.625 288.386902"/>
        </g>
        <text id="text1" xml:space="preserve" x="464" y="282" font-family="SF Pro" font-size="36" fill="#000000">Shadcn</text>
    </g>
    <g id="prisma">
        <path id="path10" fill="#000000" fill-rule="evenodd" stroke="none" d="M 868.403809 196.853897 C 867.857605 197.744858 867.866089 198.869003 868.425598 199.751602 L 878.553101 215.727341 C 879.210388 216.764221 880.477295 217.23703 881.653137 216.884262 L 910.878662 208.116623 C 912.473511 207.638107 913.276001 205.858978 912.578857 204.346741 L 893.791382 163.5923 C 892.875183 161.604782 890.113098 161.44165 888.969238 163.307449 L 868.403809 196.853897 Z M 893.292175 172.909195 C 892.892883 171.985229 891.54071 172.127533 891.342529 173.11441 L 884.109375 209.129242 C 883.956848 209.888641 884.667908 210.537125 885.410034 210.315598 L 905.602478 204.287994 C 906.191833 204.112076 906.495483 203.461044 906.251526 202.8965 L 893.292175 172.909195 Z"/>
        <g id="g2"/>
        <text id="Prisma" xml:space="preserve" x="944" y="203" font-family="SF Pro" font-size="36" fill="#000000">Prisma</text>
    </g>
    <g id="postgres">
        <g id="g3">
            <g id="postgresql">
                <path id="path6" fill="#000000" stroke="none" d="M 910.059265 125.946808 C 909.739197 124.975494 908.90155 124.298981 907.818604 124.137299 C 907.307617 124.060303 906.722961 124.093292 906.030518 124.236298 C 904.823853 124.485443 903.928955 124.580597 903.275574 124.599304 C 905.741211 120.424774 907.746521 115.663971 908.900452 111.182556 C 910.767151 103.93631 909.769409 100.635193 908.604004 99.142487 C 905.519592 95.190186 901.01947 93.066071 895.590942 93.00174 C 892.694092 92.966522 890.151428 93.539642 888.825928 93.952148 C 887.590637 93.733795 886.262939 93.611694 884.869812 93.589142 C 882.257813 93.547333 879.950562 94.118225 877.978821 95.291382 C 876.392029 94.753723 874.764648 94.344116 873.112427 94.066528 C 868.353821 93.283325 864.519226 93.893829 861.713074 95.880981 C 858.316833 98.286682 856.742188 102.467255 857.033142 108.305511 C 857.125549 110.159027 858.159546 115.799286 859.788086 121.148041 C 860.723633 124.222534 861.721375 126.775635 862.753723 128.736938 C 864.217224 131.518311 865.78418 133.156219 867.541992 133.74472 C 868.527588 134.073608 870.31842 134.304047 872.201599 132.731049 C 872.440308 133.021454 872.758789 133.309113 873.181702 133.576965 C 873.718506 133.916321 874.375244 134.193512 875.030273 134.357971 C 877.393066 134.950317 879.605713 134.802368 881.493896 133.972412 C 881.504883 134.309021 881.514221 134.630768 881.521362 134.908508 C 881.534058 135.358948 881.546692 135.800598 881.563171 136.213654 C 881.674805 139.00766 881.864563 141.180176 882.426697 142.699829 C 882.456909 142.783417 882.498169 142.910461 882.542175 143.046326 C 882.822693 143.905975 883.29071 145.345886 884.483154 146.473923 C 885.717346 147.642136 887.210022 148.000183 888.577332 148.000183 C 889.263184 148.000183 889.917725 147.909988 890.491333 147.786789 C 892.537354 147.346786 894.860535 146.677429 896.541382 144.277771 C 898.13031 142.009583 898.902527 138.592407 899.042236 133.209015 L 899.093384 132.772858 L 899.126343 132.487946 L 899.500366 132.520966 L 899.597168 132.527557 C 901.680542 132.622711 904.228149 132.179962 905.792908 131.451202 C 907.029358 130.875916 910.991516 128.778198 910.058716 125.946808"/>
                <path id="path7" fill="#000000" stroke="none" d="M 906.496399 126.497345 C 900.301147 127.778839 899.875488 125.675629 899.875488 125.675629 C 906.416077 115.94281 909.150696 103.588715 906.791199 100.564789 C 900.353394 92.316986 889.209839 96.21759 889.023926 96.318787 L 888.963989 96.329803 C 887.740234 96.074585 886.370178 95.922791 884.83075 95.898041 C 882.027954 95.851837 879.901062 96.63504 878.287903 97.861542 C 878.287903 97.861542 858.408142 89.649475 859.333252 108.190552 C 859.529602 112.134064 864.970764 138.034698 871.460754 130.211487 C 873.832947 127.350952 876.124756 124.932037 876.124756 124.932037 C 877.263306 125.690491 878.62561 126.077148 880.054504 125.938538 L 880.165649 125.843933 C 880.130981 126.1987 880.146912 126.546295 880.209656 126.957703 C 878.537659 128.830994 879.029358 129.159363 875.686951 129.849609 C 872.304993 130.548096 874.291626 131.792755 875.58905 132.118347 C 877.161499 132.512146 880.799805 133.070953 883.257751 129.620239 L 883.159851 130.014038 C 883.814331 130.539856 884.274719 133.436157 884.197693 136.061859 C 884.120667 138.687012 884.06897 140.48938 884.5849 141.897369 C 885.101868 143.305359 885.615601 146.473373 890.009521 145.529037 C 893.680237 144.740326 895.583252 142.695984 895.847839 139.285431 C 896.035339 136.861023 896.46051 137.219604 896.487488 135.052063 L 896.828491 134.025757 C 897.221741 130.739502 896.890625 129.679108 899.152222 130.172455 L 899.702209 130.220856 C 901.367065 130.296753 903.545593 129.951904 904.824402 129.356262 C 907.578247 128.074738 909.211182 125.935242 906.496399 126.497345"/>
                <path id="path8" fill="#ffffff" stroke="none" d="M 879.451172 109.953857 C 878.892944 109.875763 878.387451 109.948364 878.131165 110.142517 C 878.023254 110.218353 877.950928 110.334961 877.930969 110.465363 C 877.899048 110.696381 878.060242 110.951569 878.15979 111.083008 C 878.440308 111.455353 878.849487 111.71167 879.254822 111.768311 C 879.313497 111.776388 879.371989 111.780426 879.430298 111.780426 C 880.106262 111.780426 880.72113 111.252411 880.775024 110.862457 C 880.842712 110.374603 880.136475 110.049561 879.451172 109.953857 M 897.946045 109.969269 C 897.8927 109.587006 897.214539 109.47757 896.569946 109.567749 C 895.926453 109.65741 895.303284 109.948914 895.35498 110.332275 C 895.39679 110.629822 895.933594 111.139099 896.568848 111.139099 C 896.622762 111.139099 896.677043 111.135437 896.731689 111.128113 C 897.155151 111.068726 897.467041 110.798676 897.61499 110.643005 C 897.839905 110.405975 897.970276 110.141418 897.946045 109.969269"/>
                <path id="path9" fill="#ffffff" stroke="none" d="M 908.55835 126.352142 C 908.321838 125.635498 907.561707 125.405029 906.297852 125.66629 C 902.547913 126.442902 901.204834 125.904999 900.763733 125.579407 C 903.678711 121.126038 906.076721 115.742615 907.370911 110.719452 C 907.983582 108.340698 908.322388 106.130798 908.349854 104.329559 C 908.380676 102.352844 908.044617 100.900299 907.352173 100.013153 C 904.560364 96.435944 900.462891 94.516998 895.50293 94.464172 C 892.092957 94.42569 889.212036 95.300751 888.653809 95.54715 C 887.392151 95.235229 886.098938 95.068604 884.799377 95.050476 C 882.239685 95.009247 880.027039 95.623596 878.195007 96.876495 C 876.454468 96.238037 874.657532 95.765503 872.828064 95.465179 C 868.480286 94.763397 865.025208 95.294678 862.55957 97.046448 C 859.617065 99.136444 858.259094 102.873138 858.522522 108.15097 C 858.610535 109.92691 859.619812 115.390076 861.212036 120.621674 C 863.308105 127.50769 865.586731 131.405548 867.984192 132.207458 C 868.264709 132.300964 868.588135 132.366943 868.945068 132.366943 C 869.81958 132.366943 870.89209 131.970947 872.007446 130.62674 C 873.367981 128.98999 874.775452 127.392853 876.228149 125.837341 C 877.162048 126.344421 878.201965 126.625122 879.26416 126.65683 L 879.271851 126.739349 C 879.089274 126.957876 878.910726 127.178975 878.736206 127.402649 C 878.002502 128.336548 877.850098 128.53125 875.488403 129.018555 C 874.816345 129.157684 873.032104 129.526764 873.006287 130.780762 C 872.977661 132.151367 875.11554 132.726654 875.358643 132.78772 C 876.207275 133.000549 877.025146 133.105591 877.805054 133.105591 C 879.700867 133.105591 881.370117 132.480804 882.703308 131.271362 C 882.662659 136.156464 882.865601 140.970062 883.450256 142.436371 C 883.92981 143.637573 885.10022 146.571823 888.796265 146.571823 C 889.339111 146.571823 889.936401 146.508026 890.593079 146.367233 C 894.451355 145.537827 896.126099 143.827881 896.775085 140.058167 C 897.121582 138.043518 897.716736 133.232666 897.996094 130.651489 C 898.587341 130.836304 899.348022 130.92099 900.170288 130.92099 C 901.885193 130.92099 903.863525 130.555786 905.104858 129.977753 C 906.498596 129.328735 909.014282 127.735931 908.55835 126.351593 M 899.369995 108.913269 C 899.357361 109.675018 899.252869 110.366364 899.142334 111.088501 C 899.022949 111.865112 898.899231 112.667572 898.868408 113.642181 C 898.837585 114.590363 898.955872 115.576538 899.070251 116.529663 C 899.30127 118.45578 899.537781 120.438538 898.620911 122.395447 C 898.46873 122.124837 898.333252 121.845612 898.214478 121.55777 C 898.100586 121.280579 897.853088 120.835632 897.510437 120.220184 C 896.177795 117.822723 893.05603 112.209412 894.654297 109.918671 C 895.130066 109.236664 896.337891 108.5354 899.369995 108.913269 M 895.694885 96.006927 C 900.138916 96.105377 903.654541 97.77243 906.14325 100.961884 C 908.051758 103.408295 905.950256 114.539215 899.864441 124.142242 L 899.680237 123.908478 L 899.60321 123.812225 C 901.175659 121.207977 900.868225 118.631226 900.594299 116.347076 C 900.482117 115.409332 900.375977 114.523834 900.402893 113.69223 C 900.43042 112.810577 900.546997 112.054321 900.659241 111.323364 C 900.797852 110.422455 900.938049 109.490204 900.899597 108.391296 C 900.928162 108.275818 900.940247 108.139404 900.924866 107.978271 C 900.825867 106.924469 899.625793 103.770203 897.180481 100.91571 C 895.842834 99.353699 893.891479 97.606903 891.228333 96.427704 C 892.374023 96.190094 893.94043 95.967896 895.694336 96.006927 M 870.826599 129.642242 C 869.5979 131.123962 868.749268 130.840149 868.469849 130.746643 C 866.65155 130.138916 864.541199 126.284485 862.680542 120.172333 C 861.070679 114.883514 860.130188 109.565552 860.05542 108.073944 C 859.820557 103.357697 860.960693 100.070892 863.444519 98.304291 C 867.48645 95.429993 874.132141 97.150391 876.802368 98.023254 C 876.763855 98.061188 876.724304 98.096954 876.68634 98.135437 C 872.303894 102.572845 872.407837 110.154602 872.418884 110.618256 C 872.418884 110.797028 872.433167 111.050568 872.454041 111.398712 C 872.529419 112.673615 872.669678 115.047424 872.294556 117.734741 C 871.946411 120.232819 872.714233 122.677582 874.401062 124.441986 C 874.574117 124.623484 874.755798 124.795451 874.946106 124.957886 C 873.530029 126.481049 872.156311 128.043091 870.826599 129.642242 M 875.509338 123.377197 C 874.149719 121.954346 873.532593 119.975983 873.815308 117.94812 C 874.211304 115.109009 874.065002 112.63623 873.986389 111.307404 C 873.975342 111.121521 873.965454 110.95871 873.959961 110.830017 C 874.600159 110.260773 877.566895 108.66687 879.68219 109.153076 C 880.647461 109.374725 881.235962 110.034149 881.480713 111.167725 C 882.746216 117.038422 881.647888 119.485382 880.765686 121.45163 C 880.584167 121.856445 880.412048 122.239227 880.265198 122.635223 L 880.151306 122.941589 C 879.863708 123.715454 879.595825 124.435394 879.429749 125.119049 C 877.984314 125.114655 876.578552 124.49588 875.509338 123.376648 M 875.730957 131.293365 C 875.309143 131.187744 874.929626 131.004059 874.706848 130.851715 C 874.892761 130.763702 875.223877 130.644348 875.798096 130.526093 C 878.576111 129.952454 879.005676 129.547638 879.942322 128.354706 C 880.196533 128.025208 880.461975 127.704559 880.738159 127.393311 C 881.240906 126.828979 881.470215 126.924683 881.887146 127.097931 C 882.224854 127.23819 882.553711 127.662231 882.686829 128.129761 C 882.750061 128.349762 882.821045 128.76886 882.588928 129.094452 C 880.632019 131.842804 877.779724 131.807617 875.730957 131.293365 M 890.271362 144.861328 C 886.872314 145.591736 885.668945 143.852631 884.875854 141.86438 C 884.364319 140.581207 884.112427 134.793549 884.291199 128.402008 C 884.293396 128.319366 884.282227 128.236908 884.258179 128.157806 C 884.237061 128.005249 884.205261 127.85437 884.163025 127.706238 C 883.8974 126.776733 883.25061 125.998505 882.474548 125.675629 C 882.166565 125.547485 881.600586 125.312653 880.920776 125.487 C 881.065979 124.888031 881.316772 124.210999 881.5896 123.478943 L 881.703979 123.170929 C 881.832703 122.823334 881.994385 122.463623 882.165405 122.082489 C 883.088867 120.025482 884.353333 117.207825 882.981079 110.842102 C 882.466858 108.457855 880.749756 107.293518 878.147156 107.564117 C 876.586792 107.7258 875.159546 108.357208 874.447266 108.719116 C 874.294718 108.796855 874.153544 108.872203 874.023743 108.94516 C 874.221741 106.543304 874.973083 102.05365 877.781372 99.212891 C 879.549622 97.425934 881.904724 96.542084 884.774658 96.589935 C 890.42865 96.682892 894.053711 99.592407 896.099731 102.016785 C 897.863037 104.105713 898.81781 106.210541 899.198975 107.345764 C 896.333435 107.053162 894.384827 107.620758 893.396484 109.036469 C 891.24762 112.117554 894.572388 118.096619 896.170654 120.970398 C 896.463257 121.496735 896.716248 121.952148 896.796021 122.145721 C 897.316284 123.410187 897.990051 124.254425 898.48175 124.870453 C 898.632446 125.059631 898.778748 125.242798 898.890442 125.402832 C 898.022522 125.653656 896.463257 126.233337 896.605713 129.130737 C 896.490784 130.584412 895.676208 137.391754 895.262634 139.796356 C 894.715881 142.973724 893.549927 144.156784 890.271912 144.861877 M 904.458618 128.581848 C 903.571472 128.994354 902.086487 129.304565 900.67572 129.371094 C 899.117554 129.444244 898.324463 129.196198 898.137451 129.043304 C 898.049988 127.23764 898.720459 127.048981 899.429993 126.849335 C 899.541077 126.817993 899.649963 126.787201 899.754456 126.750336 C 899.819722 126.803884 899.891418 126.856689 899.969543 126.908752 C 901.221863 127.73761 903.455994 127.82724 906.60968 127.173859 L 906.643799 127.167236 C 906.218628 127.56601 905.490967 128.101135 904.458618 128.581848"/>
            </g>
        </g>
        <text id="Postgres" xml:space="preserve" x="944" y="128" font-family="SF Pro" font-size="36" fill="#000000">Postgres</text>
    </g>
    <g id="nodejs">
        <g id="g4">
            <path id="path11" fill="#000000" stroke="none" d="M 420.929321 80.458649 C 422.54657 79.532928 424.653748 79.528992 426.269684 80.458649 C 434.400909 85.053314 442.534088 89.640839 450.664001 94.237488 C 452.192505 95.098602 453.215424 96.800659 453.199768 98.562714 L 453.199768 126.203918 C 453.211517 128.039032 452.087463 129.781525 450.474152 130.623108 C 442.370331 135.192352 434.270416 139.766815 426.167267 144.33606 C 424.516754 145.280045 422.367157 145.207626 420.767548 144.186005 C 418.338104 142.777527 415.904083 141.376221 413.473969 139.969055 C 412.97818 139.672852 412.417786 139.437347 412.067444 138.955902 C 412.377319 138.538391 412.931213 138.486206 413.381989 138.303528 C 414.395782 137.981262 415.327393 137.463928 416.258972 136.960938 C 416.494476 136.799805 416.782166 136.861786 417.007904 137.006592 C 419.085724 138.197205 421.145264 139.423004 423.229614 140.603149 C 423.67453 140.859528 424.124664 140.518341 424.505005 140.306976 C 432.457458 135.812103 440.42038 131.334198 448.371552 126.838684 C 448.662262 126.693359 448.834167 126.384705 448.804718 126.061035 C 448.810577 116.94278 448.80603 107.82254 448.807983 98.704285 C 448.837708 98.340424 448.632996 97.997864 448.298462 97.851624 C 440.222046 93.303253 432.150208 88.748383 424.075745 84.1987 C 423.789368 84.001953 423.411499 84.001434 423.124573 84.197388 C 415.049469 88.748383 406.978912 93.307831 398.904449 97.85556 C 398.574341 98.005615 398.35321 98.337006 398.392334 98.704285 C 398.393219 107.823212 398.393219 116.942566 398.392334 126.062347 C 398.364319 126.384796 398.539276 126.690796 398.83139 126.8302 C 400.986176 128.052094 403.143585 129.265503 405.300354 130.48349 C 406.514435 131.136536 408.006409 131.52533 409.344421 131.024323 C 410.525238 130.600281 411.35376 129.395325 411.330933 128.141449 C 411.34201 119.076691 411.325043 110.009979 411.339417 100.945862 C 411.309387 100.543335 411.691681 100.211273 412.083099 100.249115 C 413.117767 100.241943 414.154419 100.234772 415.189728 100.25174 C 415.622253 100.241943 415.919739 100.675781 415.866241 101.080261 C 415.861664 110.203064 415.877319 119.325897 415.859711 128.44873 C 415.861664 130.880127 414.862885 133.525513 412.614136 134.714813 C 409.843506 136.150024 406.419189 135.846039 403.682465 134.469513 C 401.313019 133.287415 399.05191 131.891327 396.724213 130.62442 C 395.106964 129.787415 393.9888 128.038391 393.999908 126.2052 L 393.999908 98.562714 C 393.982941 96.76413 395.046295 95.031403 396.623108 94.182678 C 404.725616 89.60907 412.827911 85.034393 420.929993 80.458649"/>
            <path id="path12" fill="#000000" stroke="none" d="M 427.997833 99.606537 C 431.531738 99.378845 435.31488 99.471497 438.495209 101.212677 C 440.957275 102.546783 442.322693 105.346771 442.365753 108.082214 C 442.297272 108.451447 441.911713 108.654999 441.559418 108.629547 C 440.533905 108.628235 439.508362 108.64325 438.482819 108.623016 C 438.047668 108.639343 437.795227 108.238129 437.740417 107.85321 C 437.446198 106.544556 436.732483 105.248291 435.500153 104.617432 C 433.609558 103.670166 431.41629 103.717804 429.354767 103.738037 C 427.849091 103.817627 426.229889 103.94809 424.955139 104.833374 C 423.976593 105.503998 423.678436 106.857697 424.028107 107.947815 C 424.357574 108.730652 425.261108 108.983124 426.000244 109.216034 C 430.259613 110.329651 434.772766 110.218719 438.949921 111.684631 C 440.679382 112.282196 442.371643 113.444092 442.963348 115.255066 C 443.737701 117.681915 443.398468 120.583038 441.671631 122.531677 C 440.271637 124.135223 438.231659 125.007446 436.198181 125.48172 C 433.491486 126.085175 430.683014 126.100189 427.935211 125.832703 C 425.350494 125.537842 422.661377 124.858704 420.666412 123.097931 C 418.961121 121.617035 418.12738 119.308929 418.210236 117.081726 C 418.229797 116.705322 418.604919 116.443054 418.965027 116.474365 C 419.997742 116.465881 421.029785 116.463287 422.0625 116.475677 C 422.474823 116.445648 422.780762 116.801849 422.801636 117.191345 C 422.992157 118.438019 423.460541 119.746674 424.548706 120.48584 C 426.646759 121.840149 429.280396 121.747528 431.683105 121.78537 C 433.674164 121.696625 435.908539 121.670532 437.532959 120.354706 C 438.390167 119.604462 438.643951 118.348633 438.412354 117.268311 C 438.161835 116.356293 437.207428 115.930939 436.388031 115.653687 C 432.184113 114.323486 427.620117 114.805603 423.456635 113.301849 C 421.766968 112.704926 420.132141 111.575012 419.482361 109.838409 C 418.576202 107.38089 418.99176 104.34082 420.899323 102.458069 C 422.759888 100.585754 425.445068 99.864227 427.997833 99.605865"/>
        </g>
        <text id="Nodejs" xml:space="preserve" x="464" y="126" font-family="SF Pro" font-size="36" fill="#000000">Node.js</text>
    </g>
    <g id="docker">
        <path id="docker-mark-blue" fill="#000000" stroke="none" d="M 104.545746 346.697968 C 102.837418 345.548035 98.348221 345.056915 95.084534 345.935944 C 94.908539 342.68515 93.23246 339.94577 90.165955 337.555573 L 89.030754 336.793549 L 88.274261 337.936127 C 86.787079 340.193634 86.160507 343.201172 86.382576 345.935028 C 86.55764 347.619415 87.143669 349.512939 88.274261 350.88678 C 84.026482 353.350677 80.111336 352.791382 62.771927 352.791382 L 36.000782 352.791382 C 35.922462 356.706512 36.551796 364.238251 41.341373 370.369446 C 41.870274 371.046692 42.450771 371.701813 43.080109 372.333008 C 46.97406 376.232483 52.857368 379.091675 61.655155 379.099976 C 75.07666 379.111938 86.576073 371.857544 93.570625 354.316345 C 95.872353 354.354126 101.948242 354.729126 104.921684 348.983124 C 104.994476 348.886353 105.678177 347.459076 105.678177 347.459076 L 104.544823 346.697052 Z M 53.471962 343.11731 L 45.943901 343.11731 L 45.943901 350.645386 L 53.471962 350.645386 L 53.471962 343.11731 Z M 63.197624 343.11731 L 55.669567 343.11731 L 55.669567 350.645386 L 63.197624 350.645386 L 63.197624 343.11731 Z M 72.923286 343.11731 L 65.395226 343.11731 L 65.395226 350.645386 L 72.923286 350.645386 L 72.923286 343.11731 Z M 82.648949 343.11731 L 75.120888 343.11731 L 75.120888 350.645386 L 82.648949 350.645386 L 82.648949 343.11731 Z M 43.7463 343.11731 L 36.218239 343.11731 L 36.218239 350.645386 L 43.7463 350.645386 L 43.7463 343.11731 Z M 53.471962 333.6091 L 45.943901 333.6091 L 45.943901 341.137177 L 53.471962 341.137177 L 53.471962 333.6091 Z M 63.197624 333.6091 L 55.669567 333.6091 L 55.669567 341.137177 L 63.197624 341.137177 L 63.197624 333.6091 Z M 72.923286 333.6091 L 65.395226 333.6091 L 65.395226 341.137177 L 72.923286 341.137177 L 72.923286 333.6091 Z M 72.923286 324.099976 L 65.395226 324.099976 L 65.395226 331.628052 L 72.923286 331.628052 L 72.923286 324.099976 Z"/>
        <text id="Docker" xml:space="preserve" x="129" y="367" font-family="SF Pro" font-size="36" fill="#000000">Docker</text>
    </g>
    <g id="radix">
        <path id="radixui" fill="#000000" stroke="none" d="M 410.739258 219 C 401.494293 219 394 210.970001 394 201.064499 C 394 191.158997 401.494293 183.129547 410.739258 183.129547 Z M 410.739258 164 L 394 164 L 394 180.738693 L 410.739258 180.738693 Z M 421.5 180.738693 C 426.122192 180.738693 429.869354 176.991547 429.869354 172.369354 C 429.869354 167.747147 426.122192 164 421.5 164 C 416.877808 164 413.130096 167.747147 413.130096 172.369354 C 413.130096 176.991547 416.878357 180.738693 421.5 180.738693"/>
        <text id="Radix" xml:space="preserve" x="453" y="206" font-family="SF Pro" font-size="36" fill="#000000">Radix</text>
    </g>
    <g id="reactjs">
        <g id="reactjs-dark">
            <g id="g5">
                <path id="path13" fill="#000000" stroke="none" d="M 423.350128 41.277802 C 426.541046 41.277802 429.127808 38.691071 429.127808 35.500122 C 429.127808 32.309204 426.541046 29.722443 423.350128 29.722443 C 420.15918 29.722443 417.572418 32.309204 417.572418 35.500122 C 417.572418 38.691071 420.15918 41.277802 423.350128 41.277802"/>
                <path id="path14" fill="none" stroke="#000000" stroke-width="3.276816" d="M 423.350128 47.337311 C 440.472137 47.337311 454.352722 42.037384 454.352722 35.500122 C 454.352722 28.96286 440.472137 23.662292 423.350128 23.662292 C 406.227448 23.662292 392.346832 28.96225 392.346832 35.500122 C 392.346832 42.038025 406.227448 47.337311 423.350128 47.337311 Z"/>
                <path id="path15" fill="none" stroke="#000000" stroke-width="3.276816" d="M 413.098267 41.418701 C 421.659271 56.246948 433.189728 65.618011 438.85141 62.34903 C 444.513763 59.080109 442.162964 44.40979 433.601959 29.580902 C 425.039642 14.752655 413.509186 5.381592 407.847504 8.650543 C 402.185822 11.919525 404.536591 26.589813 413.097595 41.418701 Z"/>
                <path id="path16" fill="none" stroke="#000000" stroke-width="3.276816" d="M 413.098267 29.581543 C 404.537262 44.40979 402.186462 59.080109 407.848816 62.349701 C 413.509827 65.618011 425.040283 56.246948 433.601318 41.418701 C 442.162964 26.589813 444.513092 11.919525 438.850769 8.650543 C 433.189728 5.381592 421.659271 14.751984 413.098267 29.580902 Z"/>
            </g>
        </g>
        <text id="React" xml:space="preserve" x="464" y="50" font-family="SF Pro" font-size="36" fill="#000000">React</text>
    </g>
    <g id="zod-dark">
        <path id="path17" fill="#000000" stroke="none" d="M 684.950867 247.183701 L 699.135498 261.994934 L 665.987061 299.186218 L 663.315918 302.183716 L 629.82959 261.859222 L 644.5802 247.183701 Z M 634.605957 262.199982 L 654.629578 250.640335 L 646.003845 250.640335 L 634.504883 262.081604 Z M 669.596741 250.640335 L 639.454468 268.04187 L 645.660217 275.515381 L 676.873901 257.492981 L 676.296326 256.493805 L 684.529297 251.74057 L 683.475281 250.640335 Z M 691.312622 258.824219 L 653.673706 280.557373 L 668.404114 280.557373 L 668.404114 279.402283 L 678.993469 279.402283 L 694.431335 262.081604 Z M 670.725891 288.677734 L 656.593262 288.677734 L 663.408325 296.887573 Z"/>
        <text id="Zod" xml:space="preserve" x="725" y="286" font-family="SF Pro" font-size="36" fill="#000000">Zod</text>
    </g>
    <g id="Neon">
        <g id="neon-logo-light-color">
            <path id="path18" fill="#000000" fill-rule="evenodd" stroke="none" d="M 647 336.586212 C 647 332.396454 650.441345 329 654.686523 329 L 683.895203 329 C 688.140381 329 691.581726 332.396454 691.581726 336.586212 L 691.581726 361.104004 C 691.581726 365.438599 686.024109 367.319702 683.328674 363.897583 L 674.901978 353.199097 L 674.901978 366.172394 C 674.901978 369.943207 671.80481 373 667.984192 373 L 654.686523 373 C 650.441345 373 647 369.603516 647 365.413788 L 647 336.586212 Z M 654.686523 335.06897 C 653.837463 335.06897 653.149231 335.74826 653.149231 336.586212 L 653.149231 365.413788 C 653.149231 366.251709 653.837463 366.931 654.686523 366.931 L 668.214783 366.931 C 668.639282 366.931 668.752808 366.5914 668.752808 366.172394 L 668.752808 348.775208 C 668.752808 344.440704 674.310425 342.559387 677.00592 345.981598 L 685.432495 356.680115 L 685.432495 336.586212 C 685.432495 335.74826 685.512878 335.06897 684.663879 335.06897 L 654.686523 335.06897 Z"/>
            <path id="path19" fill="#000000" stroke="none" d="M 683.895386 329 C 688.140625 329 691.581909 332.396454 691.581909 336.586212 L 691.581909 361.104004 C 691.581909 365.438599 686.024292 367.319702 683.328918 363.897583 L 674.902222 353.199097 L 674.902222 366.172394 C 674.902222 369.943207 671.804993 373 667.984375 373 C 668.408875 373 668.752991 372.6604 668.752991 372.241394 L 668.752991 348.775208 C 668.752991 344.440704 674.310608 342.559387 677.006104 345.981598 L 685.432678 356.680115 L 685.432678 330.517242 C 685.432678 329.679291 684.744507 329 683.895386 329 Z"/>
        </g>
        <text id="text2" xml:space="preserve" x="720" y="366" font-family="SF Pro" font-size="36" fill="#000000">Neon</text>
    </g>
    <g id="tailwind">
        <path id="tailwindcss" fill="#000000" stroke="none" d="M 64.845558 250 C 52.620076 250.00061 44.97915 256.111511 41.922779 268.332703 C 46.507336 262.222432 51.855984 259.930766 57.968723 261.457703 C 61.456654 262.328796 63.948818 264.859467 66.708725 267.659729 C 71.203415 272.220428 76.405975 277.5 87.769257 277.5 C 99.994736 277.5 107.635356 271.388794 110.691116 259.166382 C 106.106562 265.277262 100.757914 267.569234 94.645172 266.042297 C 91.158157 265.171204 88.665993 262.640533 85.90609 259.840271 C 81.411392 255.279572 76.207916 250.000916 64.845558 250.000916 M 41.922779 277.500916 C 29.697297 277.500916 22.056371 283.612132 19 295.834564 C 23.584555 289.723053 28.933203 287.431386 35.045944 288.959564 C 38.532959 289.832458 41.026039 292.361298 43.785942 295.159698 C 48.279724 299.720428 53.483196 305 64.845558 305 C 77.071042 305 84.711967 298.888784 87.768333 286.666351 C 83.183779 292.777883 77.835131 295.06955 71.722389 293.541351 C 68.235374 292.670288 65.742294 290.139618 62.982391 287.340271 C 58.487698 282.779572 53.28606 277.5 41.922779 277.5"/>
        <text id="Tailwindcss" xml:space="preserve" x="129" y="287" font-family="SF Pro" font-size="36" fill="#000000">Tailwindcss</text>
    </g>
    <g id="expressjs-dark">
        <path id="path20" fill="#000000" stroke="none" d="M 110.802567 222.222626 C 107.354591 223.10051 105.221535 222.260559 103.307472 219.386139 L 89.697617 200.55835 L 87.731415 197.951279 L 71.836815 219.450607 C 70.018501 222.038712 68.115814 223.164963 64.726624 222.246338 L 85.080727 194.927078 L 66.1297 170.249969 C 69.389015 169.615738 71.640572 169.938065 73.640907 172.85704 L 87.756065 191.919937 L 101.976448 172.959427 C 103.798553 170.371323 105.758118 169.38916 109.027855 170.340973 L 101.680656 180.083847 L 91.726387 193.045242 C 90.541359 194.527008 90.704422 195.537598 91.792755 196.970078 Z M 16.021805 194.471069 L 17.688435 186.280136 C 22.221893 170.074585 40.796558 163.341705 53.606281 173.355713 C 61.093788 179.242935 62.953815 187.57608 62.583138 196.907501 L 20.384619 196.907501 C 19.751337 213.705566 31.842457 223.844696 47.255459 218.671326 C 52.662048 216.853012 55.846462 212.620087 57.439148 207.325363 C 58.249714 204.669937 59.587376 204.2547 62.082581 205.014069 C 60.80938 211.63887 57.934967 217.171555 51.862862 220.634689 C 42.789307 225.818497 29.835485 224.141434 23.021078 216.938339 C 18.96258 212.757538 17.285522 207.461868 16.533739 201.796478 C 16.415236 200.858871 16.178228 199.966782 16 199.069946 C 16.015169 197.537308 16.022436 196.004349 16.021805 194.471069 M 20.462357 193.344818 L 58.594791 193.344818 C 58.346409 181.198715 50.784012 172.569794 40.449581 172.495834 C 29.101713 172.407684 20.95533 180.828995 20.462357 193.344818 M 20.462357 193.344818"/>
        <text id="Expressjs" xml:space="preserve" x="129" y="213" font-family="SF Pro" font-size="36" fill="#000000">Express.js</text>
    </g>
    <g id="typescript-dark">
        <path id="path22" fill="#000000" stroke="none" d="M 38.0625 88 L 88.9375 88 C 90.076637 88 91 88.923401 91 90.0625 L 91 140.9375 C 91 142.07663 90.076637 143 88.9375 143 L 38.0625 143 C 36.923409 143 36 142.07663 36 140.9375 L 36 90.0625 C 36 88.923401 36.923409 88 38.0625 88 Z M 66.573654 117.26001 L 66.573654 112.749146 L 46.999577 112.749146 L 46.999577 117.26001 L 53.987961 117.26001 L 53.987961 137.344727 L 59.550999 137.344727 L 59.550999 117.26001 Z M 68.791634 136.814392 C 69.688766 137.271759 70.749847 137.614868 71.974869 137.843536 C 73.199669 138.072205 74.490692 138.186646 75.847923 138.186646 C 77.17067 138.186646 78.427216 138.060791 79.617538 137.809265 C 80.808075 137.557739 81.851807 137.143127 82.74894 136.565643 C 83.646072 135.988129 84.356209 135.233582 84.879555 134.301544 C 85.402901 133.369507 85.664574 132.217468 85.664574 130.845215 C 85.664574 129.850342 85.515022 128.978607 85.216118 128.229523 C 84.917 127.480469 84.485672 126.814331 83.922134 126.23114 C 83.358597 125.647919 82.682732 125.124786 81.894958 124.661743 C 81.106979 124.198669 80.218521 123.7612 79.229362 123.349548 C 78.504845 123.052124 77.855003 122.763397 77.279831 122.483307 C 76.704865 122.203217 76.216003 121.917236 75.813446 121.625732 C 75.410881 121.334015 75.100349 121.025391 74.881828 120.699402 C 74.663307 120.373627 74.55394 120.0047 74.55394 119.593048 C 74.55394 119.215668 74.651886 118.875519 74.847343 118.572601 C 75.042809 118.26947 75.318863 118.009277 75.675522 117.792023 C 76.03196 117.574768 76.469002 117.406158 76.986633 117.286011 C 77.504265 117.166077 78.079231 117.105988 78.711945 117.105988 C 79.171829 117.105988 79.657944 117.140259 80.169655 117.208801 C 80.68158 117.277557 81.196251 117.383331 81.713676 117.526123 C 82.231308 117.669128 82.734558 117.849121 83.223427 118.066589 C 83.712288 118.283844 84.163712 118.53537 84.57769 118.821167 L 84.57769 113.692627 C 83.738098 113.372345 82.820869 113.13501 81.826004 112.980774 C 80.830925 112.826355 79.689461 112.749146 78.401405 112.749146 C 77.09008 112.749146 75.847923 112.889191 74.674728 113.169495 C 73.501541 113.449554 72.469444 113.887024 71.578018 114.481659 C 70.6866 115.076294 69.982178 115.833801 69.464539 116.754211 C 68.946899 117.674835 68.688194 118.775452 68.688194 120.056122 C 68.688194 121.691528 69.162674 123.086609 70.111633 124.241394 C 71.060387 125.396393 72.500961 126.374146 74.433365 127.174591 C 75.192368 127.483429 75.89975 127.786377 76.555305 128.083801 C 77.210869 128.381012 77.777367 128.68985 78.254593 129.009918 C 78.73204 129.33017 79.108574 129.678772 79.384636 130.056183 C 79.66069 130.433563 79.798828 130.862335 79.798828 131.342743 C 79.798828 131.697296 79.712524 132.026031 79.539902 132.328949 C 79.3675 132.63208 79.105827 132.89502 78.755096 133.117981 C 78.404152 133.340942 77.967117 133.515472 77.443771 133.641113 C 76.920425 133.766968 76.308022 133.829803 75.606346 133.829803 C 74.410309 133.829803 73.225693 133.621246 72.052498 133.203857 C 70.879311 132.786499 69.792427 132.160339 68.791634 131.325623 Z"/>
        <text id="TypeScript" xml:space="preserve" x="129" y="132" font-family="SF Pro" font-size="36" fill="#000000">TypeScript</text>
    </g>
    <g id="reactrouter-color">
        <g id="reactrouter">
            <path id="path23" fill="#000000" stroke="none" d="M 44.02013 46.343567 C 38.995358 46.343567 34.900059 42.214905 34.900059 37.154724 C 34.900059 32.094543 38.996346 27.965912 44.02013 27.965912 C 49.044903 27.965912 53.140202 32.093536 53.140202 37.154724 C 53.140202 42.211884 49.040855 46.343567 44.02013 46.343567 M 22.121658 64.586731 C 17.104979 64.57663 13.018794 60.429749 13.033965 55.369568 C 13.039526 50.31543 17.133253 46.218506 22.187407 46.209045 C 27.208134 46.220184 31.292309 50.366028 31.274082 55.431274 C 31.264093 60.482361 27.172756 64.575043 22.121658 64.586731 M 105.125679 64.586731 C 100.07254 64.597412 95.962303 60.519684 95.932777 55.466675 C 95.907478 50.399414 99.974442 46.238373 104.988121 46.213104 C 110.03846 46.204651 114.14579 50.279846 114.176941 55.330109 C 114.205276 60.394379 110.135277 64.558411 105.124657 64.587738"/>
            <path id="path24" fill="#000000" stroke="none" d="M 88.031494 28.499939 C 85.55146 27.727203 82.90152 27.404541 80.302155 27.123383 C 76.282715 26.688477 74.681633 25.120728 74.000938 21.093231 C 73.618622 18.844818 73.08358 16.538757 72.111588 14.496674 C 70.25663 10.610779 65.911522 8.868103 61.548195 9.862335 C 57.861538 10.704865 54.799957 14.373291 54.630024 18.139862 C 54.434818 22.434387 56.892609 26.103851 61.115326 27.369171 C 63.120975 27.972992 65.254097 28.272369 67.346748 28.428131 C 71.190178 28.706268 72.472649 29.852203 73.510391 31.60199 C 74.167816 32.708496 74.800987 33.796783 74.800987 37.085938 C 74.800987 40.37915 74.160736 41.466461 73.510391 42.568909 C 72.472649 44.318695 71.189163 45.461609 67.346748 45.746826 C 65.250053 45.898529 63.117947 46.201965 61.115326 46.805786 C 56.892609 48.075134 54.434818 51.736511 54.630024 56.038147 C 54.799957 59.800659 57.865585 63.470123 61.548195 64.311646 C 65.911522 65.309937 70.25663 63.564178 72.111588 59.678284 C 73.087624 57.639221 73.618622 55.329132 74.001961 53.080719 C 74.684654 49.055206 76.285736 47.488525 80.303146 47.052612 C 82.904549 46.769409 85.55146 46.444702 88.030479 45.67099 C 91.792992 44.495697 94.056587 40.986053 94.056587 37.085938 C 94.056587 33.188904 91.794006 29.682281 88.030479 28.499939"/>
        </g>
        <text id="React-Router" xml:space="preserve" x="129" y="51" font-family="SF Pro" font-size="36" fill="#000000">React Router</text>
    </g>
    <g id="drizzle">
        <text id="Drizzle" xml:space="preserve" x="944" y="282" font-family="SF Pro" font-size="36" fill="#000000">Drizzle</text>
        <path id="Drizzle--Streamline-Simple-Icons" fill="#000000" stroke="none" d="M 880.267517 271.677643 C 880.584412 271.126526 880.666992 270.471375 880.496887 269.858856 C 880.326721 269.246338 879.91803 268.727661 879.362366 268.418915 C 878.199097 267.773376 876.733093 268.18042 876.069214 269.333282 L 868.316528 282.858643 C 867.999084 283.409607 867.916077 284.065002 868.086304 284.677704 C 868.25647 285.290405 868.665588 285.809082 869.221741 286.117371 C 870.384399 286.763306 871.85022 286.35733 872.514893 285.205292 L 880.267517 271.677643 Z M 905.970764 271.677643 C 906.287781 271.126831 906.370789 270.471863 906.20105 269.859375 C 906.031372 269.246887 905.623169 268.728027 905.067871 268.418915 C 903.903931 267.773163 902.437195 268.180115 901.772461 269.333282 L 894.022095 282.858643 C 893.705017 283.409485 893.62207 284.064423 893.791748 284.67691 C 893.961487 285.289398 894.36969 285.808258 894.924988 286.117371 C 896.084534 286.76593 897.560364 286.355713 898.220398 285.205292 L 905.970764 271.677643 Z M 922.683838 261.307922 C 923.000671 260.756775 923.083252 260.101624 922.913147 259.489105 C 922.742981 258.876587 922.33429 258.35791 921.778625 258.049164 C 920.61554 257.402283 919.14856 257.809631 918.485474 258.963562 L 910.732849 272.488892 C 910.415955 273.040009 910.333374 273.69519 910.503479 274.307678 C 910.673645 274.920197 911.082336 275.438904 911.638062 275.74762 C 912.80127 276.393188 914.267273 275.986145 914.931152 274.833252 L 922.683838 261.307922 Z M 896.973694 261.307922 C 897.291382 260.757202 897.374695 260.102051 897.204956 259.48938 C 897.035217 258.876709 896.626587 258.357849 896.070801 258.049164 C 894.907471 257.403015 893.440979 257.808899 892.775391 258.961243 L 885.025024 272.488892 C 884.708008 273.039734 884.625061 273.694672 884.794739 274.307159 C 884.964417 274.919647 885.37262 275.438507 885.927917 275.74762 C 887.087524 276.39386 888.563354 275.985962 889.223328 274.833252 L 896.973694 261.307922 Z"/>
    </g>
    <g id="solana">
        <path id="Solana--Streamline-Simple-Icons" fill="#000000" stroke="none" d="M 930.80011 366.908234 L 920.379211 377.795502 C 920.151367 378.032959 919.877502 378.221436 919.574341 378.349426 C 919.268921 378.478516 918.940674 378.544891 918.60907 378.544586 L 869.209595 378.544586 C 868.974609 378.54483 868.744446 378.477936 868.546265 378.351807 C 868.350281 378.227142 868.195129 378.047699 868.100159 377.835754 C 868.006409 377.625885 867.9776 377.392731 868.017578 377.166351 C 868.058044 376.938873 868.165161 376.728516 868.325317 376.561951 L 878.753845 365.674683 C 878.981201 365.437836 879.254272 365.249725 879.55658 365.121796 C 879.860962 364.992767 880.18811 364.926056 880.518738 364.925598 L 929.915344 364.925598 C 930.150391 364.925415 930.380615 364.992401 930.578918 365.118652 C 930.774719 365.243347 930.929871 365.422516 931.025269 365.634155 C 931.118958 365.844238 931.147644 366.077576 931.107605 366.304077 C 931.067078 366.531433 930.960083 366.741669 930.80011 366.908234 Z M 920.379211 344.984039 C 920.151367 344.746613 919.877502 344.558136 919.574341 344.430115 C 919.268921 344.301056 918.940613 344.23468 918.60907 344.234955 L 869.209595 344.234955 C 868.974609 344.234772 868.744446 344.301758 868.546265 344.428009 C 868.350281 344.552612 868.19519 344.731934 868.100159 344.943817 C 868.006348 345.153748 867.9776 345.386993 868.017578 345.613464 C 868.058167 345.840851 868.165222 346.051086 868.325317 346.217621 L 878.753845 357.105164 C 878.981201 357.341949 879.254333 357.53006 879.55658 357.65802 C 879.860107 357.786896 880.187866 357.853699 880.518738 357.854248 L 929.915344 357.854248 C 930.150391 357.854431 930.380615 357.787445 930.578918 357.661194 C 930.77478 357.536438 930.929932 357.357147 931.025269 357.145386 C 931.118896 356.935394 931.147583 356.702179 931.107605 356.475739 C 931.067017 356.248413 930.960022 356.038177 930.80011 355.871582 Z M 869.209839 337.163605 L 918.609314 337.163605 C 918.940918 337.163879 919.269165 337.097504 919.574585 336.968445 C 919.877747 336.840454 920.151611 336.651978 920.379456 336.41452 L 930.800354 325.526978 C 930.960449 325.360474 931.067505 325.150208 931.108093 324.922852 C 931.148071 324.696381 931.119324 324.463135 931.025513 324.253174 C 930.930176 324.041534 930.775024 323.862335 930.579163 323.737671 C 930.38092 323.611389 930.150635 323.544403 929.915588 323.544617 L 880.518738 323.544617 C 880.188171 323.545013 879.861023 323.611633 879.55658 323.74054 C 879.254333 323.8685 878.981201 324.05661 878.753845 324.293427 L 868.327698 335.180969 C 868.167786 335.347351 868.060791 335.557404 868.020203 335.784607 C 867.980164 336.010834 868.008728 336.243866 868.102234 336.453735 C 868.197083 336.665344 868.351746 336.844574 868.547302 336.969238 C 868.745056 337.095764 868.974792 337.163177 869.209595 337.163605 Z"/>
        <text id="Solana" xml:space="preserve" x="943" y="366" font-family="SF Pro" font-size="36" fill="#000000">Solana</text>
    </g>
</svg>
