<?xml version="1.0" encoding="UTF-8"?>
<!-- Generated by Pixelmator Pro 3.7 -->
<svg width="1200" height="300" viewBox="0 0 1200 300" xmlns="http://www.w3.org/2000/svg">
    <g id="zod-dark">
        <path id="Path" fill="#000000" stroke="none" d="M 813.950867 168.183701 L 828.135498 182.994949 L 794.987061 220.186218 L 792.315918 223.183716 L 758.82959 182.859222 L 773.5802 168.183701 Z M 763.605957 183.199982 L 783.629578 171.640335 L 775.003845 171.640335 L 763.504883 183.081573 Z M 798.596741 171.640335 L 768.454468 189.041901 L 774.660217 196.515381 L 805.873901 178.49295 L 805.296326 177.493805 L 813.529297 172.74057 L 812.475281 171.640335 Z M 820.312622 179.824203 L 782.673706 201.557373 L 797.404114 201.557373 L 797.404114 200.402283 L 807.993469 200.402283 L 823.431335 183.081573 Z M 799.725891 209.677719 L 785.593262 209.677719 L 792.408325 217.887573 Z"/>
        <text id="Zod" xml:space="preserve" x="846" y="207" font-family="Arial" font-size="36" fill="#000000">Zod</text>
    </g>
    <g id="nodejs-dark">
        <path id="path1" fill="#000000" stroke="none" d="M 478.929321 80.458633 C 480.54657 79.532913 482.653748 79.528992 484.269684 80.458633 C 492.400909 85.053314 500.534088 89.640823 508.664001 94.237473 C 510.192505 95.098602 511.215424 96.800659 511.199768 98.562729 L 511.199768 126.203903 C 511.211517 128.039047 510.087463 129.78154 508.474152 130.623108 C 500.370331 135.192352 492.270416 139.7668 484.167267 144.33606 C 482.516754 145.280045 480.367157 145.207626 478.767548 144.186005 C 476.338104 142.777527 473.904083 141.376221 471.473969 139.96904 C 470.97818 139.672867 470.417786 139.437363 470.067444 138.955902 C 470.377319 138.538391 470.931213 138.486191 471.381989 138.303528 C 472.395782 137.981247 473.327393 137.463913 474.258972 136.960938 C 474.494476 136.799805 474.782166 136.861786 475.007904 137.006607 C 477.085724 138.197189 479.145264 139.423004 481.229614 140.603149 C 481.67453 140.859543 482.124664 140.518341 482.505005 140.306976 C 490.457458 135.812103 498.42038 131.334198 506.371552 126.838669 C 506.662262 126.693344 506.834167 126.384705 506.804718 126.061035 C 506.810577 116.94278 506.80603 107.822556 506.807983 98.7043 C 506.837708 98.340424 506.632996 97.997849 506.298462 97.851639 C 498.222046 93.303268 490.150208 88.748383 482.075745 84.198715 C 481.789368 84.001953 481.411499 84.001434 481.124573 84.197403 C 473.049469 88.748383 464.978912 93.307831 456.904449 97.855545 C 456.574341 98.0056 456.35321 98.337006 456.392334 98.7043 C 456.393219 107.823212 456.393219 116.942551 456.392334 126.062347 C 456.364319 126.384781 456.539276 126.690781 456.83139 126.830185 C 458.986176 128.052094 461.143585 129.265503 463.300354 130.48349 C 464.514435 131.13652 466.006409 131.525345 467.344421 131.024323 C 468.525238 130.600266 469.35376 129.39534 469.330933 128.141464 C 469.34201 119.076691 469.325043 110.009979 469.339417 100.945862 C 469.309387 100.54335 469.691681 100.211288 470.083099 100.249115 C 471.117767 100.241943 472.154419 100.234772 473.189728 100.251724 C 473.622253 100.241943 473.919739 100.675766 473.866241 101.080246 C 473.861664 110.203079 473.877319 119.325912 473.859711 128.44873 C 473.861664 130.880142 472.862885 133.525528 470.614136 134.714813 C 467.843506 136.15004 464.419189 135.846024 461.682465 134.469513 C 459.313019 133.287399 457.05191 131.891327 454.724213 130.624405 C 453.106964 129.787415 451.9888 128.038391 451.999908 126.205215 L 451.999908 98.562729 C 451.982941 96.76413 453.046295 95.031418 454.623108 94.182678 C 462.725616 89.609085 470.827911 85.034409 478.929993 80.458633"/>
        <path id="path2" fill="#000000" stroke="none" d="M 485.997833 99.606522 C 489.531738 99.378845 493.31488 99.471481 496.495209 101.212677 C 498.957275 102.546783 500.322693 105.346786 500.365753 108.082199 C 500.297272 108.451447 499.911713 108.654984 499.559418 108.629547 C 498.533905 108.628235 497.508362 108.64325 496.482819 108.623016 C 496.047668 108.639328 495.795227 108.238113 495.740417 107.85321 C 495.446198 106.544556 494.732483 105.248276 493.500153 104.617432 C 491.609558 103.670181 489.41629 103.717804 487.354767 103.738022 C 485.849091 103.817612 484.229889 103.94809 482.955139 104.833374 C 481.976593 105.504013 481.678436 106.857697 482.028107 107.947815 C 482.357574 108.730667 483.261108 108.983139 484.000244 109.216034 C 488.259613 110.329636 492.772766 110.218735 496.949921 111.684616 C 498.679382 112.282196 500.371643 113.444077 500.963348 115.255081 C 501.737701 117.681915 501.398468 120.583038 499.671631 122.531677 C 498.271637 124.135223 496.231659 125.007446 494.198181 125.48172 C 491.491486 126.085175 488.683014 126.100174 485.935211 125.832703 C 483.350494 125.537827 480.661377 124.858704 478.666412 123.097946 C 476.961121 121.61705 476.12738 119.308945 476.210236 117.081726 C 476.229797 116.705307 476.604919 116.443054 476.965027 116.474365 C 477.997742 116.465881 479.029785 116.463272 480.0625 116.475677 C 480.474823 116.445663 480.780762 116.801865 480.801636 117.19133 C 480.992157 118.438019 481.460541 119.746689 482.548706 120.485825 C 484.646759 121.840164 487.280396 121.747528 489.683105 121.78537 C 491.674164 121.69664 493.908539 121.670547 495.532959 120.354706 C 496.390167 119.604462 496.643951 118.348648 496.412354 117.268311 C 496.161835 116.356293 495.207428 115.930939 494.388031 115.653671 C 490.184113 114.323486 485.620117 114.805588 481.456635 113.301865 C 479.766968 112.704941 478.132141 111.575027 477.482361 109.838394 C 476.576202 107.38089 476.99176 104.34082 478.899323 102.458069 C 480.759888 100.585739 483.445068 99.864212 485.997833 99.605881"/>
        <text id="Nodejs" xml:space="preserve" x="524" y="126" font-family="Arial" font-size="36" fill="#000000">Node.js</text>
    </g>
    <g id="expressjs-dark">
        <path id="path3" fill="#000000" stroke="none" d="M 94.802567 222.222626 C 91.354591 223.10051 89.221535 222.260559 87.307472 219.386139 L 73.697617 200.55835 L 71.731415 197.951279 L 55.836815 219.450592 C 54.018501 222.038727 52.115814 223.164963 48.72662 222.246338 L 69.080727 194.927078 L 50.1297 170.249969 C 53.389015 169.615738 55.640575 169.938065 57.640907 172.85704 L 71.756065 191.919937 L 85.976448 172.959442 C 87.798553 170.371323 89.758118 169.38916 93.027855 170.340973 L 85.680656 180.083847 L 75.726387 193.045258 C 74.541359 194.527008 74.704422 195.537598 75.792755 196.970062 Z M 0.021805 194.471069 L 1.688434 186.280136 C 6.221892 170.074585 24.796558 163.341705 37.606281 173.355713 C 45.093788 179.242935 46.953815 187.57608 46.583138 196.907501 L 4.384619 196.907501 C 3.751338 213.705566 15.842457 223.844696 31.255459 218.671326 C 36.662048 216.853012 39.846462 212.620087 41.439148 207.325348 C 42.249714 204.669937 43.587376 204.2547 46.082581 205.014069 C 44.80938 211.63887 41.934967 217.171539 35.862862 220.634689 C 26.789309 225.818497 13.835486 224.141449 7.021078 216.938339 C 2.96258 212.757538 1.285523 207.461884 0.533738 201.796478 C 0.415235 200.858871 0.178229 199.966782 -0 199.069946 C 0.015168 197.537308 0.022437 196.004349 0.021805 194.471069 M 4.462357 193.344818 L 42.594791 193.344818 C 42.346409 181.198715 34.784012 172.569794 24.449583 172.49585 C 13.101714 172.407684 4.95533 180.828979 4.462357 193.344818 M 4.462357 193.344818"/>
        <text id="Expressjs" xml:space="preserve" x="161" y="213" font-family="Arial" font-size="36" fill="#000000">Express.js</text>
    </g>
    <g id="reactjs-color">
        <g id="reactjs-dark">
            <g id="reactjs">
                <path id="path4" fill="#000000" stroke="none" d="M 483.350128 41.277802 C 486.541046 41.277802 489.127808 38.691071 489.127808 35.500122 C 489.127808 32.309204 486.541046 29.722443 483.350128 29.722443 C 480.15918 29.722443 477.572418 32.309204 477.572418 35.500122 C 477.572418 38.691071 480.15918 41.277802 483.350128 41.277802"/>
                <path id="path5" fill="none" stroke="#000000" stroke-width="3.276816" d="M 483.350128 47.337311 C 500.472137 47.337311 514.352722 42.037384 514.352722 35.500122 C 514.352722 28.96286 500.472137 23.662292 483.350128 23.662292 C 466.227448 23.662292 452.346832 28.96225 452.346832 35.500122 C 452.346832 42.038025 466.227448 47.337311 483.350128 47.337311 Z"/>
                <path id="path6" fill="none" stroke="#000000" stroke-width="3.276816" d="M 473.098267 41.418701 C 481.659271 56.246964 493.189728 65.618011 498.85141 62.349045 C 504.513763 59.080093 502.162964 44.40979 493.601959 29.580902 C 485.039642 14.752655 473.509186 5.381592 467.847504 8.650543 C 462.185822 11.919525 464.536591 26.589813 473.097595 41.418701 Z"/>
                <path id="path7" fill="none" stroke="#000000" stroke-width="3.276816" d="M 473.098267 29.581543 C 464.537262 44.40979 462.186462 59.080093 467.848816 62.349701 C 473.509827 65.618011 485.040283 56.246964 493.601318 41.418701 C 502.162964 26.589813 504.513092 11.919525 498.850769 8.650543 C 493.189728 5.381592 481.659271 14.751984 473.098267 29.580902 Z"/>
            </g>
            <text id="React" xml:space="preserve" x="528" y="53" font-family="Arial" font-size="36" fill="#000000">React</text>
        </g>
    </g>
    <g id="reactrouter-color">
        <g id="reactrouter">
            <path id="path8" fill="#000000" stroke="none" d="M 31.02013 42.343567 C 25.995356 42.343567 21.900057 38.214905 21.900057 33.154724 C 21.900057 28.094543 25.996346 23.965912 31.02013 23.965912 C 36.044903 23.965912 40.140202 28.093536 40.140202 33.154724 C 40.140202 38.211884 36.040855 42.343567 31.02013 42.343567 M 9.121658 60.586716 C 4.104979 60.576614 0.018794 56.429749 0.033965 51.369568 C 0.039526 46.315445 4.133253 42.218506 9.187407 42.209045 C 14.208134 42.220184 18.292309 46.366028 18.274082 51.431274 C 18.264093 56.482361 14.172755 60.575043 9.121658 60.586716 M 92.125679 60.586716 C 87.07254 60.597412 82.962303 56.519699 82.932777 51.466675 C 82.907478 46.399414 86.974442 42.238373 91.988121 42.213104 C 97.03846 42.204651 101.14579 46.279861 101.176941 51.330109 C 101.205276 56.394379 97.135277 60.558411 92.124657 60.587738"/>
            <path id="path9" fill="#000000" stroke="none" d="M 75.031494 24.499939 C 72.55146 23.727203 69.90152 23.404541 67.302155 23.123383 C 63.282711 22.688477 61.681629 21.120728 61.000938 17.093231 C 60.618618 14.844818 60.083576 12.538757 59.111588 10.496674 C 57.256626 6.610779 52.911526 4.868103 48.548195 5.862335 C 44.861538 6.704865 41.799957 10.373291 41.630024 14.139862 C 41.434818 18.434387 43.892609 22.103851 48.115326 23.369171 C 50.120975 23.972992 52.254101 24.272369 54.346752 24.428131 C 58.190178 24.706268 59.472652 25.852203 60.510387 27.60199 C 61.167812 28.708496 61.800983 29.796783 61.800983 33.085938 C 61.800983 36.37915 61.16074 37.466461 60.510387 38.568909 C 59.472652 40.318695 58.189159 41.461609 54.346752 41.746826 C 52.250053 41.898529 50.117947 42.201965 48.115326 42.805786 C 43.892609 44.075134 41.434818 47.736511 41.630024 52.038147 C 41.799957 55.800659 44.865585 59.470139 48.548195 60.311646 C 52.911526 61.309921 57.256626 59.564178 59.111588 55.678268 C 60.087624 53.639221 60.618618 51.329117 61.001957 49.080719 C 61.684658 45.055222 63.28574 43.488525 67.303146 43.052612 C 69.904549 42.769409 72.55146 42.444702 75.030479 41.67099 C 78.792992 40.495697 81.056587 36.986053 81.056587 33.085938 C 81.056587 29.188904 78.794006 25.682281 75.030479 24.499939"/>
        </g>
        <text id="React-Router-v7" xml:space="preserve" x="154" y="56" font-family="Arial" font-size="36" fill="#000000">React Router v7</text>
    </g>
    <g id="Remix-Group">
        <clipPath id="clipPath1">
            <path d="M 0.134399 96.315435 L 128 96.315435 L 128 128.238926 L 0.134399 128.238926 Z"/>
        </clipPath>
        <g id="remix-dark" clip-path="url(#clipPath1)">
            <path id="path10" fill="#000000" fill-rule="evenodd" stroke="none" d="M 26.178492 120.678024 C 26.460455 124.32814 26.460455 126.039124 26.460455 127.90683 L 18.079889 127.90683 C 18.079889 127.499878 18.087076 127.127792 18.094307 126.750366 C 18.116953 125.577271 18.140636 124.35405 17.952026 121.883591 C 17.702797 118.266953 16.15724 117.463211 13.315352 117.463211 L 0.134399 117.463211 L 0.134399 110.882843 L 13.714267 110.882843 C 17.303926 110.882843 19.098671 109.782333 19.098671 106.868896 C 19.098671 104.307114 17.303926 102.754532 13.714267 102.754532 L 0.134399 102.754532 L 0.134399 96.31543 L 15.209858 96.31543 C 23.336605 96.31543 27.375103 100.183334 27.375103 106.361893 C 27.375103 110.983261 24.533216 113.997101 20.694153 114.499466 C 23.93491 115.152512 25.829372 117.011124 26.178492 120.678024"/>
            <path id="path11" fill="#000000" stroke="none" d="M 0.134399 127.90683 L 0.134399 123.001236 L 8.995757 123.001236 C 10.47589 123.001236 10.797213 124.107574 10.797213 124.767166 L 10.797213 127.90683 Z M 127.303711 105.845108 L 118.997574 105.845108 L 115.2174 111.15712 L 111.536896 105.845108 L 102.633881 105.845108 L 110.641518 116.819763 L 101.937378 128.195145 L 110.243683 128.195145 L 114.670403 122.131577 L 119.096947 128.195145 L 128 128.195145 L 119.246109 116.468933 Z M 74.984871 109.549103 C 74.039696 106.943222 72.000526 105.139191 68.07119 105.139191 C 64.738808 105.139191 62.351391 106.642685 61.157722 109.098038 L 61.157722 105.740585 L 53.100296 105.740585 L 53.100296 128.090454 L 61.157722 128.090454 L 61.157722 117.115997 C 61.157722 113.75853 62.102722 111.553589 64.738808 111.553589 C 67.17598 111.553589 67.772903 113.15715 67.772903 116.214081 L 67.772903 128.090454 L 75.83033 128.090454 L 75.83033 117.115997 C 75.83033 113.75853 76.725533 111.553589 79.411415 111.553589 C 81.848587 111.553589 82.395752 113.15715 82.395752 116.214081 L 82.395752 128.090454 L 90.453178 128.090454 L 90.453178 114.059235 C 90.453178 109.398743 88.66272 105.139191 82.544876 105.139191 C 78.814667 105.139191 76.178581 107.043442 74.984871 109.549103 M 44.709904 119.416718 C 43.963818 121.170624 42.571194 121.922363 40.382729 121.922363 C 37.94556 121.922363 35.956013 120.619507 35.757053 117.863266 L 51.324909 117.863266 L 51.324909 115.608215 C 51.324909 109.5448 47.395741 104.433258 39.984726 104.433258 C 33.071217 104.433258 27.898588 109.494675 27.898588 116.560425 C 27.898588 123.67627 32.971848 127.985947 40.08427 127.985947 C 45.953365 127.985947 50.031872 125.129471 51.175785 120.018112 Z M 35.856598 113.954544 C 36.15493 111.849823 37.299019 110.246262 39.885311 110.246262 C 42.272732 110.246262 43.565815 111.950058 43.665359 113.954544 Z M 93.088745 105.889038 L 93.088745 128.238922 L 101.146172 128.238922 L 101.146172 105.889038 Z M 93.038956 103.784348 L 101.195923 103.784348 L 101.195923 96.668472 L 93.038956 96.668472 Z"/>
        </g>
        <text id="Remix-v2" xml:space="preserve" x="154" y="131" font-family="Arial" font-size="36" fill="#000000">Remix v2</text>
    </g>
    <g id="GitHubLockupDark">
        <path id="path12" fill="#000000" stroke="none" d="M 786.490723 85 C 769.624939 85 756 98.624939 756 115.490753 C 756 128.983398 764.73053 140.42569 776.834229 144.460266 C 778.355469 144.724823 778.950745 143.798859 778.950745 143.005157 C 778.950745 142.277618 778.884583 139.896576 778.884583 137.317078 C 771.21228 138.706055 769.228088 135.465149 768.632813 133.745514 C 768.302124 132.885681 766.780884 130.17392 765.524231 129.446381 C 764.466003 128.851135 762.944763 127.462158 765.458069 127.396027 C 767.839111 127.329895 769.558777 129.578674 770.154053 130.504639 C 772.931946 135.13446 777.297241 133.811646 779.016846 133.017975 C 779.281433 131.033752 780.075134 129.710938 780.934937 128.917267 C 774.122498 128.123566 767.045471 125.544098 767.045471 113.837219 C 767.045471 110.530212 768.235962 107.752319 770.154053 105.635834 C 769.823364 104.842133 768.765076 101.733521 770.484741 97.566681 C 770.484741 97.566681 773.064209 96.77301 778.884583 100.675293 C 781.331787 100.013885 783.911255 99.617035 786.490723 99.617035 C 789.070251 99.617035 791.649719 99.947754 794.096924 100.675293 C 799.917236 96.706848 802.496765 97.566681 802.496765 97.566681 C 804.150269 101.733521 803.09198 104.908264 802.827454 105.635834 C 804.745483 107.752319 805.936035 110.464081 805.936035 113.837219 C 805.936035 125.544098 798.792847 128.123566 791.980408 128.917267 C 793.104797 129.843231 794.030762 131.69516 794.030762 134.539185 C 794.030762 138.639893 793.9646 141.880798 793.9646 142.939026 C 793.9646 143.732727 794.559875 144.724823 796.081116 144.394135 C 808.118652 140.359558 816.849182 128.917267 816.849182 115.424622 C 817.047607 98.624939 803.356567 85 786.490723 85 Z"/>
        <path id="path13" fill="#000000" stroke="none" d="M 902.567261 129.380249 L 902.501099 129.380249 C 902.567261 129.380249 902.567261 129.380249 902.567261 129.380249 L 902.567261 129.380249 L 902.567261 129.380249 Z M 902.567261 129.380249 C 902.236511 129.380249 901.376709 129.578674 900.450745 129.578674 C 897.540527 129.578674 896.548462 128.255859 896.548462 126.536194 L 896.548462 114.961609 L 902.434937 114.961609 C 902.765625 114.961609 903.030212 114.697052 903.030212 114.23407 L 903.030212 107.950745 C 903.030212 107.620026 902.765625 107.355469 902.434937 107.355469 L 896.548462 107.355469 L 896.548462 99.617035 C 896.548462 99.352478 896.350037 99.154053 896.019348 99.154053 L 888.082458 99.154053 C 887.75177 99.154053 887.553345 99.352478 887.553345 99.617035 L 887.553345 107.620026 C 887.553345 107.620026 883.518799 108.612152 883.254211 108.678284 C 882.989685 108.744415 882.79126 109.008972 882.79126 109.27356 L 882.79126 114.300232 C 882.79126 114.697052 883.055786 115.027771 883.386536 115.027771 L 887.487183 115.027771 L 887.487183 127.13147 C 887.487183 136.126556 893.770569 137.052521 898.069702 137.052521 C 900.053894 137.052521 902.368835 136.457275 902.765625 136.25885 C 902.96405 136.192719 903.096375 135.928131 903.096375 135.663574 L 903.096375 130.107788 C 903.162476 129.710938 902.897949 129.446381 902.567261 129.380249 Z M 990.004883 121.311096 C 990.004883 114.63092 987.293152 113.771088 984.449097 114.035645 C 982.266479 114.167938 980.480652 115.292328 980.480652 115.292328 L 980.480652 128.255859 C 980.480652 128.255859 982.266479 129.512512 984.97821 129.578674 C 988.814392 129.710938 990.004883 128.321991 990.004883 121.311096 Z M 999 120.715851 C 999 133.348663 994.899292 136.986389 987.756104 136.986389 C 981.737366 136.986389 978.430298 133.943939 978.430298 133.943939 C 978.430298 133.943939 978.298035 135.663574 978.099609 135.862 C 977.967346 136.060425 977.835083 136.126556 977.570496 136.126556 L 972.080872 136.126556 C 971.684021 136.126556 971.353271 135.862 971.353271 135.531311 L 971.419434 94.524231 C 971.419434 94.193542 971.684021 93.928955 972.014709 93.928955 L 979.885437 93.928955 C 980.216125 93.928955 980.480652 94.193542 980.480652 94.524231 L 980.414551 108.347565 C 980.414551 108.347565 983.45697 106.363373 987.888428 106.363373 L 987.954529 106.363373 C 992.452087 106.363373 999 108.016876 999 120.715851 Z M 966.789612 107.355469 L 959.051147 107.355469 C 958.654297 107.355469 958.455933 107.620026 958.455933 108.083008 L 958.455933 128.123566 C 958.455933 128.123566 956.405579 129.578674 953.627625 129.578674 C 950.849792 129.578674 950.056091 128.321991 950.056091 125.544098 L 950.056091 108.016876 C 950.056091 107.686157 949.791504 107.4216 949.460815 107.4216 L 941.590088 107.4216 C 941.259399 107.4216 940.994812 107.686157 940.994812 108.016876 L 940.994812 126.866913 C 940.994812 135.002167 945.558533 136.986389 951.775696 136.986389 C 956.934692 136.986389 961.101501 134.142365 961.101501 134.142365 C 961.101501 134.142365 961.299927 135.597443 961.366089 135.795868 C 961.432251 135.994293 961.696777 136.126556 961.961365 136.126556 L 966.921875 136.126556 C 967.318726 136.126556 967.517151 135.862 967.517151 135.531311 L 967.583313 107.950745 C 967.517151 107.686157 967.186462 107.355469 966.789612 107.355469 Z M 879.351929 107.355469 L 871.481201 107.355469 C 871.150513 107.355469 870.885925 107.686157 870.885925 108.083008 L 870.885925 135.13446 C 870.885925 135.862 871.348938 136.126556 872.010315 136.126556 L 879.087402 136.126556 C 879.814941 136.126556 880.013367 135.795868 880.013367 135.13446 L 880.013367 107.950745 C 880.013367 107.620026 879.682617 107.355469 879.351929 107.355469 Z M 875.515808 94.854919 C 872.671753 94.854919 870.422974 97.103699 870.422974 99.947754 C 870.422974 102.791779 872.671753 105.040558 875.515808 105.040558 C 878.293701 105.040558 880.54248 102.791779 880.54248 99.947754 C 880.54248 97.103699 878.293701 94.854919 875.515808 94.854919 Z M 936.36499 93.928955 L 928.560425 93.928955 C 928.229736 93.928955 927.965149 94.193542 927.965149 94.524231 L 927.965149 109.604248 L 915.729187 109.604248 L 915.729187 94.590363 C 915.729187 94.259674 915.4646 93.995117 915.133911 93.995117 L 907.263184 93.995117 C 906.932495 93.995117 906.667969 94.259674 906.667969 94.590363 L 906.667969 135.597443 C 906.667969 135.928131 906.998657 136.192719 907.263184 136.192719 L 915.133911 136.192719 C 915.4646 136.192719 915.729187 135.928131 915.729187 135.597443 L 915.729187 118.004089 L 927.965149 118.004089 L 927.899048 135.531311 C 927.899048 135.862 928.163574 136.126556 928.494263 136.126556 L 936.36499 136.126556 C 936.69574 136.126556 936.960266 135.862 936.960266 135.531311 L 936.960266 94.524231 C 936.960266 94.259674 936.69574 93.928955 936.36499 93.928955 Z M 866.719116 112.117584 L 866.719116 133.282532 C 866.719116 133.414795 866.652954 133.679382 866.520691 133.745514 C 866.520691 133.745514 861.890869 137.052521 854.284729 137.052521 C 845.091187 137.052521 834.244141 134.142365 834.244141 115.226196 C 834.244141 96.243866 843.768372 92.341583 853.028015 92.407715 C 861.097168 92.407715 864.338074 94.193542 864.801025 94.524231 C 864.933289 94.722656 864.999451 94.854919 864.999451 95.053345 L 863.47821 101.601257 C 863.47821 101.931946 863.147522 102.328796 862.750671 102.196533 C 861.427856 101.799683 859.443665 101.005981 854.747681 101.005981 C 849.324158 101.005981 843.503784 102.527222 843.503784 114.763214 C 843.503784 126.999176 849.059631 128.388123 853.028015 128.388123 C 856.401184 128.388123 857.657837 127.991302 857.657837 127.991302 L 857.657837 119.52533 L 852.234375 119.52533 C 851.837524 119.52533 851.506775 119.260742 851.506775 118.930054 L 851.506775 112.117584 C 851.506775 111.786865 851.771362 111.522308 852.234375 111.522308 L 866.057678 111.522308 C 866.454529 111.456177 866.719116 111.786865 866.719116 112.117584 Z"/>
    </g>
    <g id="Prisma-Group">
        <text id="Prisma" xml:space="preserve" x="524" y="209" font-family="Arial" font-size="36" fill="#000000">Prisma</text>
        <g id="Prisma-DarkLogo">
            <path id="path14" fill="#000000" fill-rule="evenodd" stroke="none" d="M 461.403839 202.853897 C 460.857635 203.744843 460.866089 204.869003 461.425629 205.751602 L 471.553101 221.727341 C 472.210388 222.764221 473.477295 223.23703 474.653168 222.884277 L 503.878662 214.116608 C 505.473541 213.638092 506.276001 211.858978 505.578888 210.346741 L 486.791382 169.5923 C 485.875153 167.604782 483.113098 167.44165 481.969238 169.307449 L 461.403839 202.853897 Z M 486.292145 178.909195 C 485.892853 177.985229 484.54068 178.127533 484.342529 179.11441 L 477.109375 215.129242 C 476.956879 215.888641 477.667908 216.537125 478.410065 216.315598 L 498.602509 210.287994 C 499.191864 210.112076 499.495483 209.461029 499.251526 208.8965 L 486.292145 178.909195 Z"/>
        </g>
    </g>
    <g id="SQLite-Group">
        <g id="sqlite-dark">
            <path id="path21" fill="#000000" stroke="none" d="M 487.208923 246.661346 C 484.784485 244.552063 481.984222 245.40062 479.15976 247.90387 L 477.905121 249.128204 C 473.074402 254.261963 468.589172 263.753662 467.195099 271.002777 C 467.801208 272.105896 468.164886 273.506012 468.443695 274.639435 L 468.625519 275.391022 L 468.807373 276.239563 C 468.807373 276.239563 468.764954 276.075928 468.589172 275.56073 L 468.467957 275.227356 C 468.445251 275.166138 468.42099 275.10553 468.395233 275.045532 C 468.080017 274.318207 467.207245 272.766541 466.819305 272.093781 C 466.515259 272.985229 466.228333 273.882446 465.958649 274.784912 C 467.067841 276.809326 467.740601 280.282349 467.740601 280.282349 C 467.740601 280.282349 467.679993 280.058075 467.401184 279.270142 C 467.158752 278.57312 465.922272 276.421417 465.631348 275.912262 C 465.134338 277.754852 464.934326 279.003448 465.11615 279.306488 C 465.461639 279.89444 465.795013 280.906647 466.085938 282.021881 C 466.539612 283.867004 466.909698 285.731689 467.195099 287.610229 L 467.237549 288.125427 C 467.156891 290.20932 467.20343 292.296204 467.376953 294.37442 C 467.595154 296.998901 468.001251 299.253632 468.528564 300.465851 L 468.880096 300.271912 C 468.116394 297.895935 467.801208 294.774475 467.940643 291.180237 C 468.146698 285.6828 469.413483 279.057983 471.747009 272.148315 C 475.686737 261.723206 481.172058 253.358856 486.184601 249.358536 C 481.614502 253.480072 475.432159 266.838776 473.577484 271.784668 C 471.504578 277.324524 470.037781 282.512817 469.152863 287.501129 C 470.680237 282.834076 475.620056 280.833893 475.620056 280.833893 C 475.620056 280.833893 478.044495 277.845764 480.868988 273.578735 L 475.456421 275.021301 L 473.710815 275.797119 C 473.710815 275.797119 478.16571 273.081726 481.990295 271.857391 C 487.24527 263.577911 492.973053 251.813293 487.20285 246.673462"/>
        </g>
        <text id="SQLite" xml:space="preserve" x="523" y="278" font-family="Arial" font-size="36" fill="#000000">SQLite</text>
    </g>
    <g id="typescript-dark">
        <path id="path15" fill="#000000" stroke="none" d="M 758.0625 8 L 808.9375 8 C 810.07666 8 811 8.923401 811 10.0625 L 811 60.9375 C 811 62.07663 810.07666 63 808.9375 63 L 758.0625 63 C 756.923401 63 756 62.07663 756 60.9375 L 756 10.0625 C 756 8.923401 756.923401 8 758.0625 8 Z M 786.573669 37.26001 L 786.573669 32.749146 L 766.999573 32.749146 L 766.999573 37.26001 L 773.987976 37.26001 L 773.987976 57.344727 L 779.551025 57.344727 L 779.551025 37.26001 Z M 788.791626 56.814407 C 789.688782 57.271744 790.749817 57.614868 791.974854 57.843536 C 793.199646 58.072205 794.490662 58.186661 795.8479 58.186661 C 797.170654 58.186661 798.427185 58.060791 799.617554 57.809265 C 800.808105 57.557755 801.851807 57.143143 802.748962 56.565628 C 803.646057 55.988129 804.356201 55.233582 804.879578 54.301544 C 805.402893 53.369507 805.664551 52.217468 805.664551 50.845215 C 805.664551 49.850342 805.515015 48.978592 805.216125 48.229538 C 804.916992 47.480484 804.485657 46.814346 803.922119 46.23114 C 803.358582 45.647919 802.682739 45.124786 801.894958 44.661728 C 801.106995 44.198669 800.218506 43.7612 799.22937 43.349548 C 798.504822 43.052124 797.85498 42.763397 797.279846 42.483307 C 796.704895 42.203217 796.216003 41.917236 795.813416 41.625732 C 795.410889 41.334015 795.100342 41.025391 794.881836 40.699402 C 794.66333 40.373627 794.553955 40.0047 794.553955 39.593048 C 794.553955 39.215668 794.651855 38.875519 794.847351 38.572601 C 795.042786 38.26947 795.318848 38.009277 795.675537 37.792023 C 796.031982 37.574768 796.468994 37.406158 796.986633 37.286011 C 797.504272 37.166077 798.079224 37.105988 798.711914 37.105988 C 799.171814 37.105988 799.657959 37.140259 800.169678 37.208801 C 800.68158 37.277557 801.196228 37.383331 801.713684 37.526123 C 802.231323 37.669128 802.734558 37.849121 803.22345 38.066589 C 803.71228 38.283844 804.163696 38.53537 804.577698 38.821167 L 804.577698 33.692627 C 803.738098 33.372345 802.820862 33.13501 801.825989 32.980774 C 800.830933 32.826355 799.689453 32.749146 798.401428 32.749146 C 797.090088 32.749146 795.8479 32.889191 794.674744 33.169495 C 793.501526 33.449554 792.469421 33.887024 791.578003 34.481659 C 790.686584 35.076294 789.982178 35.833801 789.464539 36.754211 C 788.946899 37.674835 788.688171 38.775452 788.688171 40.056122 C 788.688171 41.691528 789.162659 43.086609 790.111633 44.241409 C 791.060364 45.396408 792.500977 46.37413 794.43335 47.174591 C 795.192383 47.483444 795.89978 47.786362 796.555298 48.083786 C 797.210876 48.380997 797.777344 48.68985 798.254578 49.009903 C 798.732056 49.33017 799.108582 49.678787 799.384644 50.056168 C 799.660706 50.433563 799.798828 50.86235 799.798828 51.342758 C 799.798828 51.697296 799.712524 52.026016 799.539917 52.328934 C 799.367493 52.63208 799.105835 52.89502 798.755127 53.117981 C 798.404175 53.340942 797.967102 53.515457 797.443787 53.641113 C 796.92041 53.766983 796.308044 53.829803 795.606323 53.829803 C 794.410278 53.829803 793.225708 53.621231 792.05249 53.203857 C 790.879333 52.786499 789.792419 52.160339 788.791626 51.325607 Z"/>
        <text id="TypeScript" xml:space="preserve" x="831" y="52" font-family="Arial" font-size="36" fill="#000000">TypeScript</text>
    </g>
</svg>
